<?xml version="1.0" encoding="utf-8"?>
<!-- Generator: Adobe Illustrator 26.2.1, SVG Export Plug-In . SVG Version: 6.00 Build 0)  -->
<svg version="1.1" id="레이어_1" xmlns="http://www.w3.org/2000/svg" xmlns:xlink="http://www.w3.org/1999/xlink" x="0px"
	 y="0px" viewBox="0 0 30 30" style="enable-background:new 0 0 30 30;" xml:space="preserve">
<style type="text/css">
	.st0{fill:#5573E8;}
</style>
<path class="st0" d="M22.1,19.5c4-5.4,2.8-13-2.7-17.1S6.3-0.3,2.4,5.1s-2.8,13,2.5,17.1c4.3,3.1,10.2,3.1,14.4,0l0,0l0.1,0.1
	l7.2,7.2c0.7,0.7,1.9,0.7,2.7,0c0.7-0.7,0.7-1.9,0-2.7L22.1,19.5C22.3,19.7,22.1,19.7,22.1,19.5L22.1,19.5z M22.6,12.3
	c0,5.7-4.6,10.3-10.3,10.3S1.8,18,1.8,12.3S6.5,2,12.2,2S22.6,6.6,22.6,12.3z"/>
</svg>
