<?xml version="1.0" encoding="utf-8"?>
<!-- Generator: Adobe Illustrator 26.2.1, SVG Export Plug-In . SVG Version: 6.00 Build 0)  -->
<svg version="1.1" id="레이어_1" xmlns="http://www.w3.org/2000/svg" xmlns:xlink="http://www.w3.org/1999/xlink" x="0px"
	 y="0px" viewBox="0 0 20 20" style="enable-background:new 0 0 20 20;" xml:space="preserve">
<style type="text/css">
	.st0{fill:#111111;}
</style>
<g>
	<path d="M10,6.9c0,1-0.8,1.9-1.9,1.9S6.3,7.9,6.3,6.9S7.1,5,8.1,5S10,5.8,10,6.9z"/>
	<path class="st0" d="M15,0H5C3.6,0,2.5,1.1,2.5,2.5v15C2.5,18.9,3.6,20,5,20h10c1.4,0,2.5-1.1,2.5-2.5v-15C17.5,1.1,16.4,0,15,0z
		 M3.8,2.5c0-0.7,0.6-1.2,1.2-1.2h10c0.7,0,1.2,0.6,1.2,1.2v10l-2.6-2.6c-0.2-0.2-0.6-0.2-0.9,0c0,0,0,0.1-0.1,0.1L10,13.8l-2.7-1.6
		C7,12,6.7,12,6.5,12.2L3.8,15V2.5z"/>
</g>
</svg>
