<?xml version="1.0" encoding="utf-8"?>
<!-- Generator: Adobe Illustrator 26.2.1, SVG Export Plug-In . SVG Version: 6.00 Build 0)  -->
<svg version="1.1" id="레이어_1" xmlns="http://www.w3.org/2000/svg" xmlns:xlink="http://www.w3.org/1999/xlink" x="0px"
	 y="0px" viewBox="0 0 20 20" style="enable-background:new 0 0 20 20;" xml:space="preserve">
<style type="text/css">
	.st0{fill:#111111;}
</style>
<path class="st0" d="M5.3,3.3C5.3,1.5,6.8,0,8.7,0S12,1.5,12,3.3v12c0,1.1-0.9,2-2,2s-2-0.9-2-2V6c0-0.4,0.3-0.7,0.7-0.7
	C9,5.3,9.3,5.6,9.3,6v9.3c0,0.4,0.3,0.7,0.7,0.7s0.7-0.3,0.7-0.7v-12c0-1.1-0.9-2-2-2s-2,0.9-2,2v12c0,1.8,1.5,3.3,3.3,3.3
	s3.3-1.5,3.3-3.3V6c0-0.4,0.3-0.7,0.7-0.7s0.7,0.3,0.7,0.7v9.3c0,2.6-2.1,4.7-4.7,4.7s-4.7-2.1-4.7-4.7V3.3z"/>
</svg>
