<?xml version="1.0" encoding="utf-8"?>
<!-- Generator: Adobe Illustrator 26.2.1, SVG Export Plug-In . SVG Version: 6.00 Build 0)  -->
<svg version="1.1" id="레이어_1" xmlns="http://www.w3.org/2000/svg" xmlns:xlink="http://www.w3.org/1999/xlink" x="0px"
	 y="0px" viewBox="0 0 20 20" style="enable-background:new 0 0 20 20;" xml:space="preserve">
<style type="text/css">
	.st0{fill:#111111;}
</style>
<path class="st0" d="M0.1,4.4c0.3-1.1,1.3-1.9,2.4-1.9h15c1.2,0,2.2,0.8,2.4,1.9L10,10.5L0.1,4.4z M0,5.9v8.9l7.3-4.4L0,5.9z
	 M8.5,11l-8.2,5c0.4,0.9,1.3,1.4,2.3,1.4h15c1,0,1.8-0.6,2.3-1.4l-8.2-5L10,12L8.5,11L8.5,11z M12.7,10.3l7.3,4.4V5.9L12.7,10.3
	L12.7,10.3z"/>
</svg>
