<?xml version="1.0" encoding="utf-8"?>
<!-- Generator: Adobe Illustrator 26.2.1, SVG Export Plug-In . SVG Version: 6.00 Build 0)  -->
<svg version="1.1" id="레이어_1" xmlns="http://www.w3.org/2000/svg" xmlns:xlink="http://www.w3.org/1999/xlink" x="0px"
	 y="0px" viewBox="0 0 20 20" style="enable-background:new 0 0 20 20;" xml:space="preserve">
<style type="text/css">
	.st0{fill:#111111;}
</style>
<g>
	<path d="M13.3,10c0,1.9-1.5,3.3-3.3,3.3S6.7,11.9,6.7,10S8.1,6.7,10,6.7S13.3,8.1,13.3,10z"/>
	<path class="st0" d="M0,10c0,0,3.7-6.9,10-6.9S20,10,20,10s-3.7,6.9-10,6.9S0,10,0,10z M10,14.4c2.4,0,4.4-2,4.4-4.4
		s-2-4.4-4.4-4.4s-4.4,2-4.4,4.4S7.6,14.4,10,14.4z"/>
</g>
</svg>
