<?xml version="1.0" encoding="utf-8"?>
<!-- Generator: Adobe Illustrator 26.2.1, SVG Export Plug-In . SVG Version: 6.00 Build 0)  -->
<svg version="1.1" id="레이어_1" xmlns="http://www.w3.org/2000/svg" xmlns:xlink="http://www.w3.org/1999/xlink" x="0px"
	 y="0px" viewBox="0 0 20 20" style="enable-background:new 0 0 20 20;" xml:space="preserve">
<style type="text/css">
	.st0{fill:#111111;}
</style>
<path class="st0" d="M18,9.5c0,3.8-3.6,7-8,7c-0.7,0-1.6-0.1-2.3-0.3c-0.5,0.3-1.9,0.9-4.2,1.3c-0.2,0-0.3-0.2-0.3-0.3
	c0.3-0.9,0.6-1.9,0.7-3C2.7,12.8,2,11.2,2,9.5c0-3.8,3.6-7,8-7S18,5.6,18,9.5z M7,9.5c0-0.5-0.4-1-1-1S5,8.9,5,9.5
	c0,0.6,0.4,1,1.1,1S7,10.1,7,9.5z M11,9.5c0-0.5-0.4-1-1-1c-0.5,0-1,0.3-1,1c0,0.6,0.4,1,1,1S11,10.1,11,9.5z M13.9,10.5
	c0.5,0,1-0.4,1-1c0-0.5-0.4-1-1-1c-0.5,0-1,0.4-1,1C13,10.1,13.4,10.5,13.9,10.5z"/>
</svg>
