<?xml version="1.0" encoding="utf-8"?>
<!-- Generator: Adobe Illustrator 26.2.1, SVG Export Plug-In . SVG Version: 6.00 Build 0)  -->
<svg version="1.1" id="레이어_1" xmlns="http://www.w3.org/2000/svg" xmlns:xlink="http://www.w3.org/1999/xlink" x="0px"
	 y="0px" viewBox="0 0 20 20" style="enable-background:new 0 0 20 20;" xml:space="preserve">
<style type="text/css">
	.st0{fill:#111111;}
</style>
<path class="st0" d="M8.5,2.7c0-1.1,1.1-1.9,2.2-1.7l0.2,0.1c0.5,0.1,1,0.5,1.2,1.1c0.2,1,0.6,2.9,0.1,5.1c0.1,0,0.4,0,0.5,0
	c0.8-0.1,1.9-0.1,2.9,0.2c0.6,0.2,1.1,0.7,1.3,1.4c0.2,0.6,0.2,1.3-0.2,2c0.1,0.1,0.1,0.2,0.1,0.4c0.1,0.4,0.1,0.6,0.1,1
	c0,0.4,0,0.7-0.1,1c0,0.1-0.1,0.4-0.2,0.5c0.2,0.5,0.1,1,0,1.3s-0.4,0.7-0.6,1.1c0.1,0.1,0.1,0.4,0.1,0.5c0,0.4-0.1,0.7-0.2,1.1
	c-0.4,0.7-1.2,1.2-2.2,1.2h-4c-0.7,0-1.2-0.1-1.7-0.2c-0.4-0.1-0.7-0.4-1.1-0.6l0,0c-0.6-0.4-1.2-0.7-2.4-0.8
	c-0.8-0.1-1.7-0.8-1.7-1.8V11c0-1,0.8-1.7,1.6-1.8c1-0.2,1.8-1,2.4-1.6c0.6-0.7,1.1-1.4,1.2-1.9C8.3,5,8.4,3.9,8.5,2.7L8.5,2.7z"/>
</svg>
