<?xml version="1.0" encoding="utf-8"?>
<!-- Generator: Adobe Illustrator 26.2.1, SVG Export Plug-In . SVG Version: 6.00 Build 0)  -->
<svg version="1.1" id="레이어_1" xmlns="http://www.w3.org/2000/svg" xmlns:xlink="http://www.w3.org/1999/xlink" x="0px"
	 y="0px" viewBox="0 0 30 30" style="enable-background:new 0 0 30 30;" xml:space="preserve">
<style type="text/css">
	.st0{fill:#111111;}
</style>
<path class="st0" d="M15,0C6.7,0,0,6.7,0,15c0,8.3,6.7,15,15,15c8.3,0,15-6.7,15-15C30,6.7,23.3,0,15,0z M15,23.6
	c-1.2,0-2.1-1-2.1-2.1h4.3C17.1,22.6,16.2,23.6,15,23.6z M7.5,20.4c1.6-1.1,2.1-6.3,2.1-7.5c0-2.5,1.8-4.7,4.3-5.3
	c0-0.1,0-0.1,0-0.2c0.1-0.6,0.6-1,1.2-1c0.6,0.1,1,0.6,1,1.2c2.4,0.5,4.3,2.7,4.3,5.3c0,1.2,0.5,6.4,2.1,7.5H7.5z"/>
</svg>
